<?xml version="1.0" encoding="UTF-8"?>
<svg width="27px" height="26px" viewBox="0 0 27 26" version="1.1" xmlns="http://www.w3.org/2000/svg" xmlns:xlink="http://www.w3.org/1999/xlink">
    <!-- Generator: Sketch 50 (54983) - http://www.bohemiancoding.com/sketch -->
    <title>noun_Ticket_854893</title>
    <desc>Created with Sketch.</desc>
    <defs></defs>
    <g id="Page-1" stroke="none" stroke-width="1" fill="none" fill-rule="evenodd">
        <g id="Desktop-HD" transform="translate(-582.000000, -4287.000000)" fill="#FFFFFF" fill-rule="nonzero">
            <g id="Group-9" transform="translate(543.500000, 4272.205371)">
                <g id="noun_Ticket_854893" transform="translate(39.167641, 14.573743)">
                    <path d="M16.037215,14.3299697 L11.806405,10.0991597 L5.2557018,16.6504075 L9.48623951,20.8806729 L16.037215,14.3299697 Z M7.28343008,17.7711446 C7.14156806,17.7711446 6.99943376,17.7175039 6.89079087,17.6083164 C6.67432196,17.3918475 6.67432196,17.0403238 6.89079087,16.8238549 L11.3067567,12.4076168 C11.5229533,12.1908756 11.874477,12.1908756 12.0912182,12.4076168 C12.3079594,12.624358 12.3079594,12.9756094 12.0912182,13.1923506 L7.675797,17.6083164 C7.5674264,17.7172316 7.42556438,17.7711446 7.28343008,17.7711446 Z M8.92069746,19.4073228 C8.77856315,19.4073228 8.63670114,19.3534098 8.52805825,19.2450392 C8.31158934,19.028298 8.31158934,18.6767743 8.52805825,18.4603054 L11.4094092,15.5786821 C11.6264227,15.3622132 11.9776741,15.3622132 12.1941431,15.5786821 C12.410612,15.7951511 12.410612,16.1466748 12.1941431,16.363416 L9.31224751,19.2453115 C9.20442149,19.3534098 9.06255947,19.4073228 8.92069746,19.4073228 Z M0.364048974,16.5670874 C0.26030727,16.6713736 0.202037651,16.8121465 0.202037651,16.9594543 C0.202037651,17.1064898 0.26030727,17.2478072 0.364048974,17.3518212 L1.4088178,18.3963177 C1.625559,18.6125144 1.97653815,18.6125144 2.19327935,18.3963177 C2.42363494,18.1662344 2.82525965,18.1662344 3.05507068,18.3963177 C3.29277805,18.6337528 3.29277805,19.020674 3.05507068,19.2583813 C2.83860176,19.4748503 2.83860176,19.826374 3.05507068,20.0428429 L3.75103865,20.7382663 C3.96723527,20.9550075 4.318759,20.9550075 4.53495562,20.7388109 C4.76531122,20.5076384 5.16693593,20.5076384 5.39729153,20.7388109 C5.6349989,20.976246 5.6349989,21.3626225 5.39729153,21.6006022 C5.18055033,21.8167988 5.18055033,22.1680503 5.39729153,22.3847915 L6.09244263,23.0802149 C6.30918383,23.2969561 6.66016299,23.2969561 6.87635961,23.0807594 C7.10698749,22.8506761 7.5086122,22.8501316 7.73869551,23.0810317 C7.85387331,23.1956649 7.9173164,23.3489631 7.9173164,23.5112467 C7.9173164,23.6743471 7.85387331,23.827373 7.73869551,23.9422785 C7.63468152,24.0465648 7.5764119,24.1876099 7.5764119,24.3346454 C7.5764119,24.4814086 7.63468152,24.6229983 7.73869551,24.7270123 L8.78373662,25.7717811 C8.89210722,25.8796072 9.03396924,25.934337 9.17610354,25.934337 C9.31796556,25.934337 9.45982758,25.8798794 9.56874275,25.7717811 L20.9550075,14.3855164 L11.7508583,5.18027804 L0.364048974,16.5670874 Z M12.1993165,8.92178661 L17.2140435,13.9365136 C17.4305124,14.1535271 17.4305124,14.5045062 17.2140435,14.7207028 L9.87860643,22.0561399 C9.77023583,22.1647828 9.62837381,22.2184235 9.48569493,22.2184235 C9.34383291,22.2184235 9.2019709,22.1650551 9.0936003,22.0561399 L4.07860104,17.0422298 C3.97485933,16.9379435 3.91631743,16.7971707 3.91631743,16.6501352 C3.91631743,16.5025551 3.97485933,16.36151 4.07860104,16.257496 L11.4143104,8.9220589 C11.6313239,8.70504541 11.982303,8.70504541 12.1993165,8.92178661 Z M25.7755932,8.78155832 L24.7310966,7.7367895 C24.5149,7.5200483 24.1628317,7.52059287 23.9463628,7.7367895 C23.7157349,7.96714509 23.3143825,7.96714509 23.0842992,7.73651721 C22.9693937,7.6216117 22.9059506,7.46858588 22.9059506,7.30602998 C22.9059506,7.14347408 22.9693937,6.99044826 23.0842992,6.87554275 C23.1880409,6.77125647 23.2465828,6.63021131 23.2465828,6.48290354 C23.2465828,6.33586805 23.1880409,6.1948229 23.0842992,6.09053662 L22.3880589,5.39484093 C22.2837726,5.29055465 22.1429998,5.23228504 21.995692,5.23228504 C21.8483842,5.23228504 21.7073391,5.29055465 21.6033251,5.39484093 C21.3737863,5.62437967 20.9724339,5.62465196 20.7420783,5.39429636 C20.504371,5.15658899 20.504371,4.7702124 20.7420783,4.53250503 C20.8463646,4.42821875 20.9049065,4.2871736 20.9049065,4.14013811 C20.9049065,3.99310262 20.8463646,3.85178518 20.7420783,3.74777119 L20.0466549,3.0523478 C19.8299137,2.83587888 19.4786623,2.83587888 19.2621934,3.0523478 C19.0315655,3.28215882 18.6302131,3.28215882 18.4001298,3.0523478 C18.1624224,2.81436814 18.1624224,2.42771926 18.4001298,2.19001189 C18.5041438,2.08572561 18.5626857,1.94468046 18.5626857,1.79737269 C18.5626857,1.6503372 18.5041438,1.50901976 18.4001298,1.40527805 L17.3550887,0.360509231 C17.1470607,0.152208958 16.7789274,0.152208958 16.5703548,0.360509231 L12.7057721,4.22536424 L21.9112827,13.4311472 L25.7755932,9.56683674 C25.9917898,9.34982325 25.9917898,8.99884409 25.7755932,8.78155832 Z" id="Shape"></path>
                </g>
            </g>
        </g>
    </g>
</svg>