<?xml version="1.0" encoding="UTF-8"?>
<svg width="195px" height="31px" viewBox="0 0 195 31" version="1.1" xmlns="http://www.w3.org/2000/svg" xmlns:xlink="http://www.w3.org/1999/xlink">
    <!-- Generator: Sketch 50 (54983) - http://www.bohemiancoding.com/sketch -->
    <title>twp-masthead-415x57</title>
    <desc>Created with Sketch.</desc>
    <defs></defs>
    <g id="Page-1" stroke="none" stroke-width="1" fill="none" fill-rule="evenodd">
        <g id="Desktop-HD" transform="translate(-1003.000000, -439.000000)" fill="#231F20" fill-rule="nonzero">
            <g id="twp-masthead-415x57" transform="translate(1003.499712, 439.234089)">
                <path d="M11.1162354,9.52269609 L11.1162354,20.011821 C12.533413,19.2464697 13.5258143,17.9139122 14.0075625,16.4112767 L14.1210876,16.4682487 C13.8089985,20.210385 11.2578275,23.9521025 7.28906,23.9521025 C3.29180652,23.9521025 0.343507425,20.9757363 0.343507425,16.2127127 C0.343507425,12.6410733 2.66804731,10.4011535 5.64483239,8.38828376 C5.21963722,8.27475875 4.76595607,8.2182057 4.31227492,8.2182057 C2.27091921,8.2182057 1.08037274,9.60731621 1.08037274,11.0249127 L0.910294677,11.0249127 C0.881808696,10.8263487 0.881808696,10.6282035 0.881808696,10.4296395 C0.881808696,7.90653554 2.21436616,4.84471143 5.44626834,4.84471143 C7.51569112,4.84471143 9.10336568,6.74405615 11.5129446,6.74405615 C12.4768599,6.74405615 13.6674064,6.290375 14.1491546,5.24142062 L14.2341937,5.24142062 C14.2061266,7.08463119 13.6393393,8.98397591 11.1162354,9.52269609 Z M12.646938,20.2669381 C11.2293415,21.7691547 9.69863892,23.0451591 7.71425517,23.0451591 C4.02909075,23.0451591 1.19431667,20.1534131 1.19431667,15.9575956 C1.19431667,13.4914636 2.21478507,12.159325 3.34877849,10.5997175 L3.23525347,10.5997175 C2.52645522,11.3085158 0.655596489,13.0943355 0.655596489,16.1276736 C0.655596489,20.7771723 3.5754096,23.6404324 7.40258502,23.6404324 C10.067281,23.6404324 11.8815867,21.7980596 12.70391,20.2954241 L12.646938,20.2669381 Z M13.7805125,6.51784394 C13.2987643,7.42478733 12.2782959,8.58684781 10.2088731,8.58684781 C8.13945034,8.58684781 6.24010562,7.16925131 4.56739202,7.16925131 C3.03627051,7.16925131 1.98773504,8.19013863 1.59060694,8.95548993 L1.61909293,9.01246189 C2.15781311,8.47374171 2.97971746,7.93502153 4.31227492,7.93502153 C6.52328979,7.93502153 7.94088629,9.29606497 10.1803871,9.29606497 C12.561899,9.29606497 13.6389204,7.73645748 13.8374845,6.54632992 L13.7805125,6.51784394 Z M5.89953058,8.47374171 C4.45386701,9.97637724 3.12130954,11.6206049 3.12130954,14.8240211 C3.12130954,16.5813548 3.71658278,18.3956605 5.04914024,19.5296539 L5.87104459,19.1040398 L5.87104459,11.5070798 L5.10569329,11.903789 L4.96410121,11.6201859 L8.93286871,9.46530522 C7.85584725,9.23909301 6.89193191,8.75734479 5.89953058,8.47374171 Z M10.8041464,9.57924914 C10.6055823,9.60731621 10.4074372,9.60731621 10.1803871,9.60731621 C9.78367795,9.60731621 9.41503584,9.57924914 9.04639372,9.4937912 L9.04639372,17.7714823 L5.33274332,19.7851899 C6.09809462,20.3519771 7.03352399,20.6921333 8.22407046,20.6921333 C9.18798581,20.6921333 10.0383761,20.4935692 10.8037274,20.1534131 L10.8037274,9.57924914 L10.8041464,9.57924914 Z M6.72185384,11.0253316 L6.18313366,11.3370018 L6.18313366,18.9347995 L6.72185384,18.6511965 L6.72185384,11.0253316 Z M23.0225379,12.1023531 L23.0225379,21.9111657 C23.0225379,24.6324148 20.612959,26.4756254 17.919777,27.0139266 L17.8632239,26.9004016 C19.1957814,26.2481564 19.9611327,24.9160179 19.9611327,23.4984214 L19.9611327,13.3494526 L18.4304301,11.960761 L17.8351569,12.6125873 L17.8351569,20.5220552 L18.6855472,21.2874065 L18.6855472,21.3443785 L16.3894933,23.8389964 L13.7532833,21.4294175 L13.7532833,21.3158925 L14.7737517,20.2384521 L14.7737517,7.70839041 L17.7786038,4.50539312 L17.8351569,4.53346019 L17.8351569,12.1308391 L20.3017078,9.46614304 L22.8813647,11.7911018 L23.363113,11.2804487 L23.590163,11.4794317 L23.0225379,12.1023531 Z M15.0850029,21.3724455 L15.0850029,21.3158925 L15.6802761,20.7202003 L15.6802761,7.22622328 L15.0850029,7.8504014 L15.0850029,20.4370162 L14.1776406,21.3443785 L14.1776406,21.4009315 L16.3886555,23.3853153 L16.7853647,22.9316341 L15.0850029,21.3724455 Z M20.8680761,12.8957714 L19.0252844,11.3085158 L18.6285752,11.733711 L20.2728029,13.2082794 L20.2728029,23.4138012 C20.2728029,24.0941135 20.1312108,24.8024928 19.8760937,25.1996209 L19.9045797,25.2281069 C20.6133779,24.7174538 20.868495,23.9521025 20.868495,22.9601201 L20.868495,12.8957714 L20.8680761,12.8957714 Z M27.5300256,17.8003872 L27.5300256,19.2460508 L30.2797606,21.4005126 L31.8674352,19.6997319 L32.0944852,19.9263631 L28.4093208,23.8666446 L24.6671844,20.8617924 L24.1003972,21.4570657 L23.8733472,21.2304345 L24.5255923,20.5501223 L24.5255923,13.3779386 L29.8834704,9.46572413 L32.6901774,14.0016978 L27.5300256,17.8003872 Z M25.4321168,20.2954241 L25.4321168,13.0943355 L24.8368436,13.5199496 L24.8368436,20.5790272 L28.3523489,23.4422872 L28.80603,22.960539 L25.4321168,20.2954241 Z M27.5869976,11.5636329 L27.5300256,11.5921189 L27.5300256,17.403678 L30.0531295,15.5608864 L27.5869976,11.5636329 Z M28.3238629,10.9968456 L27.8136287,11.3650688 L30.3086655,15.3623223 L30.8188997,14.9936802 L28.3238629,10.9968456 Z" id="Shape"></path>
                <path d="M51.1687823,23.8385775 L47.2280819,20.4365973 L44.2232297,23.8385775 L40.1409372,20.3230722 L40.1409372,14.7670491 L39.3470999,14.7670491 C38.6383017,14.7670491 38.2700785,15.2207302 38.0995815,15.7590315 L38.0145425,15.7590315 C37.9579894,15.5324004 37.8729504,15.1356912 37.8729504,14.6820101 C37.8729504,13.9447258 38.0715144,12.017314 40.1409372,12.017314 L40.1409372,7.14118424 C40.1409372,6.20575488 39.0354298,5.83711276 39.0354298,4.58959433 C39.0354298,2.97427161 40.5661324,1.38659705 43.3728394,0.393776805 L43.4863644,0.478815838 C42.465896,1.07450798 41.9271758,1.64129523 41.9271758,2.86032768 C41.9271758,4.73160533 43.7414815,4.2494382 43.7414815,7.1977373 L43.7414815,8.33173071 L47.0584227,4.84471143 L50.545442,8.27475875 L53.8338972,4.84471143 L57.0088274,7.9630886 L57.0088274,18.4522135 L51.1687823,23.8385775 Z M41.0482995,19.86981 L41.0482995,13.8885917 L39.4606249,13.8885917 C38.6383017,13.8885917 38.2700785,14.426893 38.2131065,14.9090601 L38.2411736,14.9375461 C38.5247767,14.6258759 38.8083798,14.4557978 39.460206,14.4557978 L40.4521885,14.4557978 L40.4521885,20.182318 L44.1943248,23.4142202 L44.61952,22.903567 L41.0482995,19.86981 Z M41.0482995,6.85758116 C41.0482995,5.69552068 40.0278311,5.29839258 40.0278311,4.56152726 C40.0278311,3.54063995 40.4245403,2.69066853 41.0482995,1.89683125 L40.9917465,1.86876418 C40.1413561,2.52100937 39.3475188,3.56996376 39.3475188,4.59001324 C39.3475188,5.61090056 40.4530263,6.09264877 40.4530263,7.00001107 L40.4530263,12.017733 L41.0482995,12.017733 L41.0482995,6.85758116 Z M47.0299367,9.69277416 L44.8754749,7.59486539 L43.7414815,8.75692588 L43.7414815,18.7923696 L46.3211385,20.9753174 L47.0299367,20.1814802 L47.0299367,9.69277416 Z M47.9368801,19.8132569 L47.9368801,9.29606497 L45.5273012,6.91455313 L45.0736201,7.36823427 L47.3416069,9.55076316 L47.3416069,20.1249271 L51.1687823,23.4418683 L51.6224635,23.0162542 L47.9368801,19.8132569 Z M53.4367691,9.32413204 L51.6509494,7.62293246 L50.630481,8.67188685 L50.630481,18.7643026 L53.4087021,21.2019486 L53.4367691,21.1738815 L53.4367691,9.32413204 Z M54.3437125,8.92742286 L52.2742897,6.91455313 L51.8490946,7.36823427 L53.7484393,9.18253996 L53.7484393,21.0322894 L54.3437125,20.4650832 L54.3437125,8.92742286 Z" id="Shape"></path>
                <path d="M66.3895125,23.8385775 L63.6963305,21.4005126 L61.2867516,23.8385775 L58.3384525,21.2304345 L57.9413244,21.6556297 L57.7146933,21.4289986 L58.2249275,20.8902784 L58.2249275,13.2933185 L63.5547385,9.43765706 L66.6165626,11.8191689 L67.1552828,11.2519627 L67.3823328,11.4790128 L66.7585736,12.1308391 L66.7585736,19.9837539 L68.2607902,21.3724455 L68.7429573,20.8622113 L68.9695884,21.0607754 L66.3895125,23.8385775 Z M59.1322898,20.6921333 L59.1322898,13.0377824 L58.5370166,13.4629776 L58.5370166,20.9757363 L61.2586846,23.4138012 L61.7123657,22.9601201 L59.1322898,20.6921333 Z M63.6963305,13.2363465 L61.3717907,11.4220408 L61.2867516,11.4790128 L61.2867516,19.7282179 L63.2145823,21.4005126 L63.6963305,20.9187644 L63.6963305,13.2363465 Z M64.6036928,20.9472504 L64.6036928,12.8111513 L62.1941139,10.8548346 L61.6273267,11.2515438 L64.0084196,13.1228215 L64.0084196,21.2304345 L66.3899315,23.3848964 L66.8151266,22.9312152 L64.6036928,20.9472504 Z M74.6391366,14.596971 L77.5589497,14.596971 L77.5589497,20.6636473 L73.051462,23.8385775 C72.4561888,23.1582652 71.6053796,22.676517 70.5568441,22.676517 C69.7064538,22.676517 69.0257226,22.9601201 68.1187792,23.7254714 L67.9771871,23.6684994 L71.8328485,18.0555043 L69.4513367,18.0555043 L69.4513367,12.7826653 L74.1858744,9.49421011 C74.7526616,9.94789126 75.1778568,10.2025894 75.915141,10.2025894 C76.4823472,10.2025894 77.3042515,10.0890644 77.9280107,9.57924914 L78.0415358,9.63580219 L74.6391366,14.596971 Z M71.4642064,21.8541937 C70.6418831,21.8541937 69.9900568,22.1377968 69.4228507,22.534506 L69.4228507,22.591478 C69.8765318,22.3929139 70.330213,22.3363609 70.7554081,22.3363609 C71.4072344,22.3363609 72.4281217,22.6484499 73.108434,23.4422872 L73.7606792,22.960539 C73.2215401,22.3363609 72.5697138,21.8541937 71.4642064,21.8541937 Z M74.4971256,17.091589 L72.909451,17.091589 L69.5925098,21.8830986 L69.6209958,21.9396517 C70.4429002,21.3443785 71.2367374,20.9476693 72.2006528,20.9476693 C73.0510431,20.9476693 73.9299194,21.3443785 74.4686396,22.0246907 L74.4971256,21.9966237 L74.4971256,17.091589 Z M70.35828,17.091589 L70.35828,12.5279672 L69.7630068,12.9531623 L69.7630068,17.7157671 L72.0590607,17.7157671 L72.5127419,17.0920079 L70.35828,17.0920079 L70.35828,17.091589 Z M76.2833642,11.5351469 C75.688091,11.960761 75.3479348,12.1873921 74.3555335,12.1873921 C73.7883274,12.1873921 73.1080151,11.932275 72.5697138,11.3650688 L72.5131608,11.3935548 L72.5131608,15.5324004 L73.5901822,15.5324004 L76.3118502,11.563214 L76.2833642,11.5351469 Z M74.9227397,11.2800298 C74.4125055,11.2800298 73.7606792,11.0253316 73.3350651,10.4581255 L72.6262669,10.9398737 C73.164987,11.5921189 73.6752212,11.875303 74.4686396,11.875303 C74.9788738,11.875303 75.7161581,11.733292 76.4815094,11.0810468 L76.5095764,10.9964267 C76.0282471,11.1954097 75.4329739,11.2800298 74.9227397,11.2800298 Z M75.4044879,16.1565785 L73.5616962,16.1565785 L73.1365011,16.7518517 L74.8092147,16.7518517 L74.8092147,22.2513218 L75.4044879,21.8261267 L75.4044879,16.1565785 Z M87.3392764,12.1023531 L87.3392764,21.9111657 C87.3392764,24.6324148 84.9296975,26.4756254 82.2365155,27.0139266 L82.1799624,26.9004016 C83.5125199,26.2481564 84.2778712,24.9160179 84.2778712,23.4984214 L84.2778712,13.3494526 L82.7471686,11.960761 L82.1518953,12.6125873 L82.1518953,20.5220552 L83.0022857,21.2874065 L83.0022857,21.3443785 L80.7062318,23.8389964 L78.0700217,21.4294175 L78.0700217,21.3158925 L79.0904901,20.2384521 L79.0904901,7.70839041 L82.0953423,4.50539312 L82.1518953,4.53346019 L82.1518953,12.1308391 L84.6184462,9.46614304 L87.1981032,11.7911018 L87.6798514,11.2804487 L87.9069014,11.4794317 L87.3392764,12.1023531 Z M79.4017414,21.3724455 L79.4017414,21.3158925 L79.9970146,20.7202003 L79.9970146,7.22622328 L79.4017414,7.84998249 L79.4017414,20.4365973 L78.4943791,21.3439595 L78.4943791,21.4005126 L80.7053939,23.3848964 L81.1021031,22.9312152 L79.4017414,21.3724455 Z M85.1848146,12.8957714 L83.3420229,11.3085158 L82.9453137,11.733711 L84.5895413,13.2082794 L84.5895413,23.4138012 C84.5895413,24.0941135 84.4479492,24.8024928 84.1928321,25.1996209 L84.2213181,25.2281069 C84.9301164,24.7174538 85.1852335,23.9521025 85.1852335,22.9601201 L85.1852335,12.8957714 L85.1848146,12.8957714 Z M92.4990092,23.8385775 L90.0609444,21.5990766 L89.4937382,22.1943499 L89.2666882,21.9672999 L89.9189334,21.2589205 L89.9189334,13.0662684 L88.7283869,11.932275 L88.2747057,12.4429281 L88.0476557,12.2158781 L90.5988267,9.43765706 L92.8668135,11.4790128 L93.4340197,10.8552536 L93.6891368,11.0538176 L92.9803386,11.8191689 L92.9803386,20.0972789 L94.341382,21.3728644 L94.9651412,20.7206192 L95.1917723,20.9476693 L92.4990092,23.8385775 Z M90.8262957,21.0607754 L90.8262957,12.6125873 L89.3521461,11.2519627 L88.9554369,11.7056439 L90.2310224,12.9246763 L90.2310224,21.3443785 L92.4990092,23.3853153 L92.9242044,22.9316341 L90.8262957,21.0607754 Z M91.676686,9.21102594 L89.3521461,7.0850501 L91.4785408,4.81706327 L93.8030807,6.94303911 L91.676686,9.21102594 Z M90.2310224,6.63095004 L89.8058273,7.05614521 L91.6482,8.78541186 L92.0733952,8.30366364 L90.2310224,6.63095004 Z" id="Shape"></path>
                <path d="M104.486162,23.8385775 L102.019611,21.5990766 L102.019611,13.3213855 L100.516975,11.960761 L99.723138,12.8111513 L99.723138,20.4650832 L100.602014,21.2869876 L100.602014,21.4005126 L98.2774744,23.8385775 L95.6408455,21.4289986 L95.6408455,21.3439595 L96.6617328,20.2669381 L96.6617328,13.1228215 L95.3291753,11.903789 L94.7904551,12.4990623 L94.563824,12.2724311 L97.143481,9.46572413 L99.723138,11.7621969 L99.723138,12.3289842 L102.41632,9.46572413 L104.939005,11.733711 L105.506211,11.1384377 L105.761328,11.3650688 L105.081016,12.0738671 L105.081016,20.1814802 L106.356601,21.3720266 L106.980361,20.6917144 L107.206992,20.9183455 L104.486162,23.8385775 Z M97.0018889,21.3724455 L97.0018889,21.3158925 C97.0018889,21.3724455 97.5690951,20.7486863 97.5690951,20.7486863 L97.5690951,12.6972074 L95.9529345,11.2230578 L95.5558064,11.648253 L96.9734029,12.9523245 L96.9734029,20.4361783 L96.0945266,21.3435406 L96.0945266,21.4000937 L98.2774744,23.3844774 L98.7307366,22.9027292 L97.0018889,21.3724455 Z M102.926554,21.1458144 L102.926554,12.8396373 L101.16922,11.2519627 L100.715539,11.733711 L102.331281,13.1793745 L102.331281,21.4289986 L104.457257,23.4133823 L104.910938,22.9312152 L102.926554,21.1458144 Z M112.48025,28.9413384 C111.545239,27.92087 110.892994,27.4956748 110.014118,27.4956748 C109.078688,27.4956748 108.001248,27.864317 106.895741,28.4595902 L106.810702,28.3749701 L110.722916,23.8389964 L107.944695,21.6279815 L107.405975,22.1951877 L107.179344,21.9966237 L107.802684,21.3163114 L107.802684,13.2933185 L113.189048,9.43765706 L116.1939,11.8191689 L116.704553,11.2519627 L116.931184,11.4790128 L116.335911,12.1308391 L116.335911,21.8265456 C116.335911,23.3006951 117.157815,23.2441421 117.157815,24.3492306 C117.157815,25.6248161 115.315024,26.8153626 112.48025,28.9413384 Z M108.710046,21.0888424 L108.710046,13.0662684 L108.114773,13.4918825 L108.114773,21.3443785 L110.921061,23.6123653 L111.346675,23.1017122 L108.710046,21.0888424 Z M110.69443,26.7588095 C109.759001,26.7588095 108.908191,27.0424126 108.114773,27.5807139 L108.114773,27.6376858 C108.625007,27.4391218 109.191794,27.1840047 110.15571,27.1840047 C111.034586,27.1840047 111.771451,27.6657529 112.508736,28.5165622 L113.075942,28.062881 C112.366725,27.2409767 111.516334,26.7588095 110.69443,26.7588095 Z M114.152963,24.0371415 C113.444584,23.5834604 113.274087,23.1017122 113.274087,21.8826797 L113.274087,21.3720266 L108.568035,26.8149437 L108.596521,26.8430107 C109.503465,26.3047095 110.325788,25.9080003 111.658345,25.9080003 C112.792339,25.9080003 113.55769,26.3612625 114.436566,27.0985467 C114.975287,26.6448656 115.34351,26.1916034 115.34351,25.4828051 C115.34351,24.9160179 114.861343,24.4908227 114.152963,24.0371415 Z M113.274087,13.2363465 L110.921061,11.3939737 L110.864089,11.4505268 L110.864089,20.1534131 L112.678814,21.5710096 L113.274087,20.8906973 L113.274087,13.2363465 Z M115.003354,23.6404324 C114.266069,23.0732262 114.18103,22.591478 114.18103,21.3724455 L114.18103,12.7545983 L111.799519,10.8267676 L111.261217,11.1954097 L113.585757,13.0377824 L113.585757,21.7691547 C113.585757,22.9881872 113.642729,23.3287622 114.40808,23.8385775 C115.088393,24.2922586 115.626694,24.7740069 115.626694,25.4262521 C115.626694,25.5959112 115.598627,25.8795143 115.598627,25.8795143 L115.626694,25.9080003 C115.768705,25.7659893 115.938783,25.5393582 115.938783,25.1707161 C115.939202,24.5473757 115.627113,24.1221806 115.003354,23.6404324 Z M121.807314,23.8385775 L119.199171,21.7976407 L118.660451,22.3929139 L118.43382,22.1658639 L119.05716,21.4855516 L119.05716,11.5636329 L117.412933,11.5636329 L117.355961,11.5070798 L118.348362,10.0325114 L119.056741,10.0325114 L119.056741,8.13358557 L122.062012,4.93016938 L122.118565,4.98714134 L122.118565,10.0329303 L124.386552,10.0329303 L124.443524,10.0899023 L123.451123,11.5640518 L122.118565,11.5640518 L122.118565,20.153832 L123.678173,21.3447974 L124.273446,20.6925522 L124.500077,20.9191833 L121.807314,23.8385775 Z M119.964522,7.65141844 L119.369249,8.30366364 L119.369249,10.0329303 L119.964522,10.0329303 L119.964522,7.65141844 Z M119.964522,21.2023675 L119.964522,11.5636329 L119.369249,11.5636329 L119.369249,21.5425236 L121.778828,23.4138012 L122.204023,22.9601201 L119.964522,21.2023675 Z M133.77017,12.3859562 L133.77017,20.3234911 L128.979079,23.8670635 L125.378535,21.1458144 L124.953339,21.6275626 L124.726708,21.4005126 L125.236943,20.8337253 L125.236943,13.0662684 L130.255083,9.46572413 L133.600092,12.074286 L134.138393,11.5070798 L134.365443,11.733711 L133.77017,12.3859562 Z M126.144724,20.5505412 L126.144724,12.8111513 L125.549032,13.2363465 L125.549032,20.8622113 L128.951012,23.4703543 L129.489732,23.0736451 L126.144724,20.5505412 Z M130.708764,13.3213855 L128.327253,11.4501079 L128.299186,11.4785939 L128.299186,19.9263631 L130.708764,21.7406687 L130.708764,13.3213855 Z M131.616127,12.8111513 L128.979498,10.7697956 L128.441197,11.1665048 L131.020854,13.1508885 L131.020854,21.9677188 L131.616127,21.5144565 L131.616127,12.8111513 Z M144.59987,23.8385775 L142.133319,21.5990766 L142.133319,13.3213855 L140.630683,11.960761 L139.836846,12.8111513 L139.836846,20.4650832 L140.715722,21.2869876 L140.715722,21.4005126 L138.391182,23.8385775 L135.754553,21.4289986 L135.754553,21.3439595 L136.775441,20.2669381 L136.775441,13.1228215 L135.442883,11.903789 L134.904163,12.4990623 L134.677532,12.2724311 L137.257189,9.46572413 L139.836846,11.7621969 L139.836846,12.3289842 L142.530028,9.46572413 L145.053132,11.733711 L145.619919,11.1384377 L145.875036,11.3650688 L145.194724,12.0738671 L145.194724,20.1814802 L146.470309,21.3720266 L147.094069,20.6917144 L147.3207,20.9183455 L144.59987,23.8385775 Z M137.115178,21.3724455 L137.115178,21.3158925 C137.115178,21.3724455 137.682384,20.7486863 137.682384,20.7486863 L137.682384,12.6972074 L136.066642,11.2230578 L135.669933,11.648253 L137.08753,12.9523245 L137.08753,20.4361783 L136.208653,21.3435406 L136.208653,21.4000937 L138.391601,23.3844774 L138.845282,22.9027292 L137.115178,21.3724455 Z M143.040262,21.1458144 L143.040262,12.8396373 L141.282928,11.2519627 L140.829247,11.733711 L142.444989,13.1793745 L142.444989,21.4289986 L144.570965,23.4133823 L145.024646,22.9312152 L143.040262,21.1458144 Z" id="Shape"></path>
                <path d="M162.112884,23.8385775 C161.319046,22.9881872 161.035862,22.7045841 160.100014,22.449467 L160.100014,23.0732262 L160.100014,28.005909 L160.043042,28.0339761 L158.909048,27.0130888 L155.620593,30.0464269 L155.563621,30.0183599 L155.563621,22.3929139 C154.571639,22.6195451 153.522684,23.1301982 152.501797,24.1502477 L152.445244,24.1221806 C152.643808,21.9392328 153.72083,20.3234911 155.563202,19.6997319 L155.563202,14.1717759 L154.967929,14.1717759 C154.146025,14.1717759 153.692344,14.596971 153.295634,15.3623223 L153.210595,15.3623223 C153.125556,15.1076241 153.068584,14.7100771 153.068584,14.0586698 C153.068584,12.8677044 153.947461,11.6206049 155.393543,11.6206049 L155.563202,11.6206049 L155.563202,8.55878074 L154.401142,7.50982636 L153.833936,8.07703252 L153.635372,7.87846847 L156.498632,4.84513034 L159.163328,7.28319524 L159.163328,9.86285222 L159.787087,9.18253996 L159.787087,5.9221518 L160.098757,5.9221518 L160.098757,8.89893687 L163.868961,4.84471143 L167.072377,7.76494346 L167.072377,20.09686 L162.112884,23.8385775 Z M155.564459,21.3439595 C154.402399,21.5705907 153.580494,22.2793889 153.041774,23.2148183 L153.069841,23.2717902 C153.864097,22.591478 154.600544,22.2798078 155.564459,22.0527578 L155.564459,21.3439595 Z M156.471821,13.2082794 L154.912633,13.2082794 C153.835192,13.2082794 153.409997,13.8885917 153.38193,14.682429 L153.409997,14.710496 C153.750153,14.1432899 154.09031,13.9451447 154.770622,13.8605246 L155.876548,13.8605246 L155.876548,29.3103994 L156.471821,28.7431933 L156.471821,13.2082794 Z M156.471821,8.10509959 L155.054225,6.80144702 L154.600544,7.28319524 L155.876548,8.41676974 L155.876548,11.6201859 L156.471821,11.6201859 L156.471821,8.10509959 Z M159.788763,9.72084123 L159.165003,10.3730864 L159.165003,26.7872955 L159.788763,27.3545017 L159.788763,9.72084123 Z M163.502413,9.06901494 L161.829699,7.53831234 L160.100433,9.40958999 L160.100433,19.3880618 C161.574582,19.5300728 162.595051,19.9552679 163.473927,20.9187644 L163.502413,20.8906973 L163.502413,9.06901494 Z M160.100433,21.3439595 L160.100433,22.0812438 C161.064348,22.3078749 161.461057,22.591478 162.14137,23.3848964 L162.793615,22.8746622 C162.112884,22.0242718 161.432571,21.5144565 160.100433,21.3439595 Z M164.409356,8.6157527 L162.481526,6.82951409 L162.027845,7.31126231 L163.814083,8.95548993 L163.814083,22.1377968 L164.409356,21.6841157 L164.409356,8.6157527 Z M176.967904,12.3859562 L176.967904,20.3234911 L172.176394,23.8670635 L168.576269,21.1458144 L168.150655,21.6275626 L167.924024,21.4005126 L168.434258,20.8337253 L168.434258,13.0662684 L173.452399,9.46572413 L176.797407,12.074286 L177.335708,11.5070798 L177.562758,11.733711 L176.967904,12.3859562 Z M169.342039,20.5505412 L169.342039,12.8111513 L168.746347,13.2363465 L168.746347,20.8622113 L172.148327,23.4703543 L172.687048,23.0736451 L169.342039,20.5505412 Z M173.90608,13.3213855 L171.524987,11.4501079 L171.496501,11.4785939 L171.496501,19.9263631 L173.90608,21.7406687 L173.90608,13.3213855 Z M174.813442,12.8111513 L172.176813,10.7697956 L171.638512,11.1665048 L174.218169,13.1508885 L174.218169,21.9677188 L174.813442,21.5144565 L174.813442,12.8111513 Z M183.544396,14.596971 L186.464628,14.596971 L186.464628,20.6636473 L181.95714,23.8385775 C181.361867,23.1582652 180.511476,22.676517 179.462522,22.676517 C178.612132,22.676517 177.931819,22.9601201 177.024457,23.7254714 L176.882865,23.6684994 L180.738108,18.0555043 L178.356596,18.0555043 L178.356596,12.7826653 L183.091133,9.49421011 C183.65834,9.94789126 184.083116,10.2025894 184.8204,10.2025894 C185.387606,10.2025894 186.209092,10.0890644 186.83327,9.57924914 L186.946795,9.63580219 L183.544396,14.596971 Z M180.369465,21.8541937 C179.547561,21.8541937 178.895316,22.1377968 178.328529,22.534506 L178.328529,22.591478 C178.78221,22.3929139 179.235472,22.3363609 179.661086,22.3363609 C180.313331,22.3363609 181.333381,22.6484499 182.013693,23.4422872 L182.665938,22.960539 C182.127637,22.3363609 181.475392,21.8541937 180.369465,21.8541937 Z M183.403222,17.091589 L181.815548,17.091589 L178.499026,21.8830986 L178.527093,21.9396517 C179.348997,21.3443785 180.142834,20.9476693 181.10675,20.9476693 C181.95714,20.9476693 182.836016,21.3443785 183.374736,22.0246907 L183.402804,21.9966237 L183.402804,17.091589 L183.403222,17.091589 Z M179.264377,17.091589 L179.264377,12.5279672 L178.668685,12.9531623 L178.668685,17.7157671 L180.964739,17.7157671 L181.41842,17.0920079 L179.264377,17.0920079 L179.264377,17.091589 Z M185.189042,11.5351469 C184.59335,11.960761 184.253613,12.1873921 183.260793,12.1873921 C182.693586,12.1873921 182.013274,11.932275 181.474973,11.3650688 L181.418001,11.3935548 L181.418001,15.5324004 L182.495022,15.5324004 L185.21669,11.563214 L185.189042,11.5351469 Z M183.827999,11.2800298 C183.317764,11.2800298 182.665938,11.0253316 182.240743,10.4581255 L181.531945,10.9398737 C182.070665,11.5921189 182.580899,11.875303 183.374736,11.875303 C183.884971,11.875303 184.622255,11.733292 185.387606,11.0810468 L185.415673,10.9964267 C184.933925,11.1954097 184.338652,11.2800298 183.827999,11.2800298 Z M184.310166,16.1565785 L182.467793,16.1565785 L182.042598,16.7518517 L183.714893,16.7518517 L183.714893,22.2513218 L184.310166,21.8261267 L184.310166,16.1565785 Z M191.170679,23.8385775 L188.562536,21.7976407 L188.023816,22.3929139 L187.797185,22.1658639 L188.420525,21.4855516 L188.420525,11.5636329 L186.776298,11.5636329 L186.719745,11.5070798 L187.711727,10.0325114 L188.420106,10.0325114 L188.420106,8.13358557 L191.425378,4.93016938 L191.48235,4.98714134 L191.48235,10.0329303 L193.749917,10.0329303 L193.806889,10.0899023 L192.814488,11.5640518 L191.48235,11.5640518 L191.48235,20.153832 L193.041538,21.3447974 L193.636811,20.6925522 L193.863442,20.9191833 L191.170679,23.8385775 Z M189.327888,7.65141844 L188.732614,8.30366364 L188.732614,10.0329303 L189.327888,10.0329303 L189.327888,7.65141844 Z M189.327888,21.2023675 L189.327888,11.5636329 L188.732614,11.5636329 L188.732614,21.5425236 L191.142193,23.4138012 L191.567389,22.9601201 L189.327888,21.2023675 Z" id="Shape"></path>
            </g>
        </g>
    </g>
</svg>